<?xml version="1.0" encoding="utf-8" standalone="no"?>
<!DOCTYPE svg PUBLIC "-//W3C//DTD SVG 1.1//EN"
  "http://www.w3.org/Graphics/SVG/1.1/DTD/svg11.dtd">
<svg xmlns:xlink="http://www.w3.org/1999/xlink" width="864pt" height="576pt" viewBox="0 0 864 576" xmlns="http://www.w3.org/2000/svg" version="1.1">
 <metadata>
  <rdf:RDF xmlns:dc="http://purl.org/dc/elements/1.1/" xmlns:cc="http://creativecommons.org/ns#" xmlns:rdf="http://www.w3.org/1999/02/22-rdf-syntax-ns#">
   <cc:Work>
    <dc:type rdf:resource="http://purl.org/dc/dcmitype/StillImage"/>
    <dc:date>2024-10-12T03:47:18.268029</dc:date>
    <dc:format>image/svg+xml</dc:format>
    <dc:creator>
     <cc:Agent>
      <dc:title>Matplotlib v3.9.0, https://matplotlib.org/</dc:title>
     </cc:Agent>
    </dc:creator>
   </cc:Work>
  </rdf:RDF>
 </metadata>
 <defs>
  <style type="text/css">*{stroke-linejoin: round; stroke-linecap: butt}</style>
 </defs>
 <g id="figure_1">
  <g id="patch_1">
   <path d="M 0 576 
L 864 576 
L 864 0 
L 0 0 
z
" style="fill: #ffffff"/>
  </g>
  <g id="axes_1">
   <g id="patch_2">
    <path d="M 62.21 511.818536 
L 853.2 511.818536 
L 853.2 28.32 
L 62.21 28.32 
z
" style="fill: #ffffff"/>
   </g>
   <g id="PathCollection_1">
    <defs>
     <path id="m7ca0e75a6c" d="M 0 3 
C 0.795609 3 1.55874 2.683901 2.12132 2.12132 
C 2.683901 1.55874 3 0.795609 3 0 
C 3 -0.795609 2.683901 -1.55874 2.12132 -2.12132 
C 1.55874 -2.683901 0.795609 -3 0 -3 
C -0.795609 -3 -1.55874 -2.683901 -2.12132 -2.12132 
C -2.683901 -1.55874 -3 -0.795609 -3 0 
C -3 0.795609 -2.683901 1.55874 -2.12132 2.12132 
C -1.55874 2.683901 -0.795609 3 0 3 
z
" style="stroke: #000000"/>
    </defs>
    <g clip-path="url(#p58903a492c)">
     <use xlink:href="#m7ca0e75a6c" x="209.198783" y="178.723859" style="fill: #008000; stroke: #000000"/>
     <use xlink:href="#m7ca0e75a6c" x="214.48615" y="231.156589" style="fill: #008000; stroke: #000000"/>
     <use xlink:href="#m7ca0e75a6c" x="219.773516" y="238.65977" style="fill: #008000; stroke: #000000"/>
     <use xlink:href="#m7ca0e75a6c" x="225.060882" y="209.005194" style="fill: #008000; stroke: #000000"/>
     <use xlink:href="#m7ca0e75a6c" x="230.348249" y="202.880879" style="fill: #008000; stroke: #000000"/>
     <use xlink:href="#m7ca0e75a6c" x="235.635615" y="203.310655" style="fill: #008000; stroke: #000000"/>
     <use xlink:href="#m7ca0e75a6c" x="246.210348" y="234.791782" style="fill: #008000; stroke: #000000"/>
     <use xlink:href="#m7ca0e75a6c" x="251.497714" y="221.021028" style="fill: #008000; stroke: #000000"/>
     <use xlink:href="#m7ca0e75a6c" x="256.78508" y="228.9898" style="fill: #008000; stroke: #000000"/>
     <use xlink:href="#m7ca0e75a6c" x="262.072447" y="231.389385" style="fill: #008000; stroke: #000000"/>
     <use xlink:href="#m7ca0e75a6c" x="277.934545" y="206.319091" style="fill: #008000; stroke: #000000"/>
     <use xlink:href="#m7ca0e75a6c" x="283.221912" y="211.906185" style="fill: #008000; stroke: #000000"/>
     <use xlink:href="#m7ca0e75a6c" x="288.509278" y="191.062026" style="fill: #008000; stroke: #000000"/>
     <use xlink:href="#m7ca0e75a6c" x="293.796644" y="215.433933" style="fill: #008000; stroke: #000000"/>
     <use xlink:href="#m7ca0e75a6c" x="299.084011" y="214.090882" style="fill: #008000; stroke: #000000"/>
     <use xlink:href="#m7ca0e75a6c" x="304.371377" y="239.483509" style="fill: #008000; stroke: #000000"/>
     <use xlink:href="#m7ca0e75a6c" x="309.658743" y="259.360671" style="fill: #008000; stroke: #000000"/>
     <use xlink:href="#m7ca0e75a6c" x="314.94611" y="237.334626" style="fill: #008000; stroke: #000000"/>
     <use xlink:href="#m7ca0e75a6c" x="330.808209" y="229.920982" style="fill: #008000; stroke: #000000"/>
     <use xlink:href="#m7ca0e75a6c" x="351.957674" y="255.653849" style="fill: #008000; stroke: #000000"/>
     <use xlink:href="#m7ca0e75a6c" x="362.532406" y="230.386573" style="fill: #008000; stroke: #000000"/>
     <use xlink:href="#m7ca0e75a6c" x="367.819773" y="239.805841" style="fill: #008000; stroke: #000000"/>
     <use xlink:href="#m7ca0e75a6c" x="373.107139" y="250.389087" style="fill: #008000; stroke: #000000"/>
     <use xlink:href="#m7ca0e75a6c" x="378.394505" y="242.957535" style="fill: #008000; stroke: #000000"/>
     <use xlink:href="#m7ca0e75a6c" x="383.681872" y="262.512365" style="fill: #008000; stroke: #000000"/>
     <use xlink:href="#m7ca0e75a6c" x="388.969238" y="213.35668" style="fill: #008000; stroke: #000000"/>
     <use xlink:href="#m7ca0e75a6c" x="420.693436" y="237.728588" style="fill: #008000; stroke: #000000"/>
     <use xlink:href="#m7ca0e75a6c" x="425.980802" y="220.806139" style="fill: #008000; stroke: #000000"/>
     <use xlink:href="#m7ca0e75a6c" x="431.268168" y="240.378876" style="fill: #008000; stroke: #000000"/>
     <use xlink:href="#m7ca0e75a6c" x="457.705" y="158.399013" style="fill: #008000; stroke: #000000"/>
     <use xlink:href="#m7ca0e75a6c" x="462.992366" y="153.241696" style="fill: #008000; stroke: #000000"/>
     <use xlink:href="#m7ca0e75a6c" x="473.567099" y="170.39694" style="fill: #008000; stroke: #000000"/>
     <use xlink:href="#m7ca0e75a6c" x="510.578663" y="136.91019" style="fill: #008000; stroke: #000000"/>
     <use xlink:href="#m7ca0e75a6c" x="521.153396" y="157.503646" style="fill: #008000; stroke: #000000"/>
     <use xlink:href="#m7ca0e75a6c" x="542.302861" y="135.907378" style="fill: #008000; stroke: #000000"/>
     <use xlink:href="#m7ca0e75a6c" x="558.16496" y="135.728304" style="fill: #008000; stroke: #000000"/>
     <use xlink:href="#m7ca0e75a6c" x="563.452326" y="146.418994" style="fill: #008000; stroke: #000000"/>
     <use xlink:href="#m7ca0e75a6c" x="568.739693" y="146.132477" style="fill: #008000; stroke: #000000"/>
     <use xlink:href="#m7ca0e75a6c" x="574.027059" y="168.928537" style="fill: #008000; stroke: #000000"/>
     <use xlink:href="#m7ca0e75a6c" x="579.314425" y="153.062622" style="fill: #008000; stroke: #000000"/>
     <use xlink:href="#m7ca0e75a6c" x="584.601791" y="168.498761" style="fill: #008000; stroke: #000000"/>
     <use xlink:href="#m7ca0e75a6c" x="600.46389" y="82.776261" style="fill: #008000; stroke: #000000"/>
     <use xlink:href="#m7ca0e75a6c" x="605.579913" y="-1" style="fill: #008000; stroke: #000000"/>
     <use xlink:href="#m7ca0e75a6c" x="608.432307" y="-1" style="fill: #008000; stroke: #000000"/>
     <use xlink:href="#m7ca0e75a6c" x="616.325989" y="7.260953" style="fill: #008000; stroke: #000000"/>
     <use xlink:href="#m7ca0e75a6c" x="621.613356" y="86.124936" style="fill: #008000; stroke: #000000"/>
     <use xlink:href="#m7ca0e75a6c" x="632.188088" y="83.026964" style="fill: #008000; stroke: #000000"/>
     <use xlink:href="#m7ca0e75a6c" x="637.475455" y="104.014382" style="fill: #008000; stroke: #000000"/>
     <use xlink:href="#m7ca0e75a6c" x="642.762821" y="127.490922" style="fill: #008000; stroke: #000000"/>
     <use xlink:href="#m7ca0e75a6c" x="648.050187" y="118.716319" style="fill: #008000; stroke: #000000"/>
     <use xlink:href="#m7ca0e75a6c" x="653.337553" y="118.393986" style="fill: #008000; stroke: #000000"/>
     <use xlink:href="#m7ca0e75a6c" x="658.62492" y="107.649575" style="fill: #008000; stroke: #000000"/>
     <use xlink:href="#m7ca0e75a6c" x="663.912286" y="109.1717" style="fill: #008000; stroke: #000000"/>
     <use xlink:href="#m7ca0e75a6c" x="674.487019" y="4.932997" style="fill: #008000; stroke: #000000"/>
     <use xlink:href="#m7ca0e75a6c" x="679.774385" y="5.774642" style="fill: #008000; stroke: #000000"/>
     <use xlink:href="#m7ca0e75a6c" x="690.349118" y="96.31422" style="fill: #008000; stroke: #000000"/>
     <use xlink:href="#m7ca0e75a6c" x="695.636484" y="95.024891" style="fill: #008000; stroke: #000000"/>
     <use xlink:href="#m7ca0e75a6c" x="700.92385" y="28.230463" style="fill: #008000; stroke: #000000"/>
     <use xlink:href="#m7ca0e75a6c" x="706.211217" y="107.00491" style="fill: #008000; stroke: #000000"/>
     <use xlink:href="#m7ca0e75a6c" x="711.498583" y="29.842125" style="fill: #008000; stroke: #000000"/>
     <use xlink:href="#m7ca0e75a6c" x="716.785949" y="1.852932" style="fill: #008000; stroke: #000000"/>
     <use xlink:href="#m7ca0e75a6c" x="722.073316" y="6.884898" style="fill: #008000; stroke: #000000"/>
     <use xlink:href="#m7ca0e75a6c" x="727.360682" y="12.131753" style="fill: #008000; stroke: #000000"/>
     <use xlink:href="#m7ca0e75a6c" x="732.648048" y="92.088085" style="fill: #008000; stroke: #000000"/>
     <use xlink:href="#m7ca0e75a6c" x="737.935414" y="107.595853" style="fill: #008000; stroke: #000000"/>
     <use xlink:href="#m7ca0e75a6c" x="748.510147" y="7.565378" style="fill: #008000; stroke: #000000"/>
     <use xlink:href="#m7ca0e75a6c" x="753.797513" y="3.930185" style="fill: #008000; stroke: #000000"/>
    </g>
   </g>
   <g id="PathCollection_2">
    <defs>
     <path id="maa52063442" d="M -1.5 3 
L 0 1.5 
L 1.5 3 
L 3 1.5 
L 1.5 0 
L 3 -1.5 
L 1.5 -3 
L 0 -1.5 
L -1.5 -3 
L -3 -1.5 
L -1.5 0 
L -3 1.5 
z
" style="stroke: #000000"/>
    </defs>
    <g clip-path="url(#p58903a492c)">
     <use xlink:href="#maa52063442" x="98.164091" y="269.263437" style="fill: #ff0000; stroke: #000000"/>
     <use xlink:href="#maa52063442" x="103.451457" y="384.1212" style="fill: #ff0000; stroke: #000000"/>
     <use xlink:href="#maa52063442" x="108.738824" y="410.37338" style="fill: #ff0000; stroke: #000000"/>
     <use xlink:href="#maa52063442" x="114.02619" y="368.058304" style="fill: #ff0000; stroke: #000000"/>
     <use xlink:href="#maa52063442" x="119.313556" y="302.821817" style="fill: #ff0000; stroke: #000000"/>
     <use xlink:href="#maa52063442" x="124.600922" y="306.922601" style="fill: #ff0000; stroke: #000000"/>
     <use xlink:href="#maa52063442" x="129.888289" y="401.670406" style="fill: #ff0000; stroke: #000000"/>
     <use xlink:href="#maa52063442" x="135.175655" y="403.67603" style="fill: #ff0000; stroke: #000000"/>
     <use xlink:href="#maa52063442" x="140.463021" y="407.472389" style="fill: #ff0000; stroke: #000000"/>
     <use xlink:href="#maa52063442" x="145.750388" y="259.665096" style="fill: #ff0000; stroke: #000000"/>
     <use xlink:href="#maa52063442" x="151.037754" y="325.080657" style="fill: #ff0000; stroke: #000000"/>
     <use xlink:href="#maa52063442" x="156.32512" y="314.766021" style="fill: #ff0000; stroke: #000000"/>
     <use xlink:href="#maa52063442" x="161.612487" y="286.651477" style="fill: #ff0000; stroke: #000000"/>
     <use xlink:href="#maa52063442" x="166.899853" y="287.224512" style="fill: #ff0000; stroke: #000000"/>
     <use xlink:href="#maa52063442" x="172.187219" y="280.939031" style="fill: #ff0000; stroke: #000000"/>
     <use xlink:href="#maa52063442" x="177.474586" y="305.633271" style="fill: #ff0000; stroke: #000000"/>
     <use xlink:href="#maa52063442" x="182.761952" y="334.875979" style="fill: #ff0000; stroke: #000000"/>
     <use xlink:href="#maa52063442" x="188.049318" y="343.381972" style="fill: #ff0000; stroke: #000000"/>
     <use xlink:href="#maa52063442" x="193.336684" y="337.006954" style="fill: #ff0000; stroke: #000000"/>
     <use xlink:href="#maa52063442" x="198.624051" y="403.926733" style="fill: #ff0000; stroke: #000000"/>
     <use xlink:href="#maa52063442" x="203.911417" y="177.398715" style="fill: #ff0000; stroke: #000000"/>
     <use xlink:href="#maa52063442" x="240.922981" y="369.16856" style="fill: #ff0000; stroke: #000000"/>
     <use xlink:href="#maa52063442" x="267.359813" y="173.423283" style="fill: #ff0000; stroke: #000000"/>
     <use xlink:href="#maa52063442" x="272.647179" y="285.021908" style="fill: #ff0000; stroke: #000000"/>
     <use xlink:href="#maa52063442" x="320.233476" y="315.876277" style="fill: #ff0000; stroke: #000000"/>
     <use xlink:href="#maa52063442" x="325.520842" y="157.808071" style="fill: #ff0000; stroke: #000000"/>
     <use xlink:href="#maa52063442" x="336.095575" y="306.761435" style="fill: #ff0000; stroke: #000000"/>
     <use xlink:href="#maa52063442" x="341.382941" y="92.482046" style="fill: #ff0000; stroke: #000000"/>
     <use xlink:href="#maa52063442" x="346.670307" y="136.695301" style="fill: #ff0000; stroke: #000000"/>
     <use xlink:href="#maa52063442" x="357.24504" y="185.116784" style="fill: #ff0000; stroke: #000000"/>
     <use xlink:href="#maa52063442" x="394.256604" y="185.098877" style="fill: #ff0000; stroke: #000000"/>
     <use xlink:href="#maa52063442" x="399.543971" y="205.423723" style="fill: #ff0000; stroke: #000000"/>
     <use xlink:href="#maa52063442" x="404.831337" y="150.680944" style="fill: #ff0000; stroke: #000000"/>
     <use xlink:href="#maa52063442" x="410.118703" y="174.103762" style="fill: #ff0000; stroke: #000000"/>
     <use xlink:href="#maa52063442" x="415.40607" y="190.274102" style="fill: #ff0000; stroke: #000000"/>
     <use xlink:href="#maa52063442" x="436.555535" y="37.434843" style="fill: #ff0000; stroke: #000000"/>
     <use xlink:href="#maa52063442" x="441.842901" y="28.66024" style="fill: #ff0000; stroke: #000000"/>
     <use xlink:href="#maa52063442" x="447.130267" y="175.60798" style="fill: #ff0000; stroke: #000000"/>
     <use xlink:href="#maa52063442" x="452.417634" y="129.514453" style="fill: #ff0000; stroke: #000000"/>
     <use xlink:href="#maa52063442" x="468.279733" y="188.05359" style="fill: #ff0000; stroke: #000000"/>
     <use xlink:href="#maa52063442" x="478.854465" y="326.190913" style="fill: #ff0000; stroke: #000000"/>
     <use xlink:href="#maa52063442" x="484.141832" y="230.870072" style="fill: #ff0000; stroke: #000000"/>
     <use xlink:href="#maa52063442" x="489.429198" y="96.940977" style="fill: #ff0000; stroke: #000000"/>
     <use xlink:href="#maa52063442" x="494.455841" y="-1" style="fill: #ff0000; stroke: #000000"/>
     <use xlink:href="#maa52063442" x="496.33637" y="-1" style="fill: #ff0000; stroke: #000000"/>
     <use xlink:href="#maa52063442" x="500.00393" y="10.502184" style="fill: #ff0000; stroke: #000000"/>
     <use xlink:href="#maa52063442" x="505.291297" y="9.212854" style="fill: #ff0000; stroke: #000000"/>
     <use xlink:href="#maa52063442" x="515.866029" y="107.255613" style="fill: #ff0000; stroke: #000000"/>
     <use xlink:href="#maa52063442" x="526.440762" y="13.779229" style="fill: #ff0000; stroke: #000000"/>
     <use xlink:href="#maa52063442" x="531.728128" y="194.894199" style="fill: #ff0000; stroke: #000000"/>
     <use xlink:href="#maa52063442" x="537.015495" y="377.781997" style="fill: #ff0000; stroke: #000000"/>
     <use xlink:href="#maa52063442" x="547.590227" y="62.737933" style="fill: #ff0000; stroke: #000000"/>
     <use xlink:href="#maa52063442" x="552.877594" y="413.704148" style="fill: #ff0000; stroke: #000000"/>
     <use xlink:href="#maa52063442" x="589.889158" y="-0.009433" style="fill: #ff0000; stroke: #000000"/>
     <use xlink:href="#maa52063442" x="595.176524" y="13.582248" style="fill: #ff0000; stroke: #000000"/>
     <use xlink:href="#maa52063442" x="611.038623" y="395.957961" style="fill: #ff0000; stroke: #000000"/>
     <use xlink:href="#maa52063442" x="626.900722" y="61.341159" style="fill: #ff0000; stroke: #000000"/>
     <use xlink:href="#maa52063442" x="669.199652" y="387.111728" style="fill: #ff0000; stroke: #000000"/>
     <use xlink:href="#maa52063442" x="685.061751" y="407.776814" style="fill: #ff0000; stroke: #000000"/>
     <use xlink:href="#maa52063442" x="743.222781" y="344.760838" style="fill: #ff0000; stroke: #000000"/>
     <use xlink:href="#maa52063442" x="759.08488" y="253.272171" style="fill: #ff0000; stroke: #000000"/>
     <use xlink:href="#maa52063442" x="764.372246" y="392.806267" style="fill: #ff0000; stroke: #000000"/>
     <use xlink:href="#maa52063442" x="769.659612" y="389.582943" style="fill: #ff0000; stroke: #000000"/>
     <use xlink:href="#maa52063442" x="774.946979" y="348.252772" style="fill: #ff0000; stroke: #000000"/>
     <use xlink:href="#maa52063442" x="780.234345" y="372.750031" style="fill: #ff0000; stroke: #000000"/>
     <use xlink:href="#maa52063442" x="785.521711" y="404.231158" style="fill: #ff0000; stroke: #000000"/>
     <use xlink:href="#maa52063442" x="790.809078" y="382.205113" style="fill: #ff0000; stroke: #000000"/>
     <use xlink:href="#maa52063442" x="796.096444" y="284.162355" style="fill: #ff0000; stroke: #000000"/>
     <use xlink:href="#maa52063442" x="801.38381" y="294.512805" style="fill: #ff0000; stroke: #000000"/>
     <use xlink:href="#maa52063442" x="806.671176" y="391.785547" style="fill: #ff0000; stroke: #000000"/>
     <use xlink:href="#maa52063442" x="811.958543" y="376.116613" style="fill: #ff0000; stroke: #000000"/>
     <use xlink:href="#maa52063442" x="817.245909" y="334.875979" style="fill: #ff0000; stroke: #000000"/>
    </g>
   </g>
   <g id="matplotlib.axis_1">
    <g id="xtick_1">
     <g id="line2d_1">
      <defs>
       <path id="meafa106004" d="M 0 0 
L 0 3.5 
" style="stroke: #000000; stroke-width: 0.8"/>
      </defs>
      <g>
       <use xlink:href="#meafa106004" x="92.876725" y="511.818536" style="stroke: #000000; stroke-width: 0.8"/>
      </g>
     </g>
     <g id="text_1">
      <!-- 1 -->
      <g transform="translate(92.45909 532.639159) rotate(-45) scale(0.14 -0.14)">
       <defs>
        <path id="DejaVuSans-31" d="M 794 531 
L 1825 531 
L 1825 4091 
L 703 3866 
L 703 4441 
L 1819 4666 
L 2450 4666 
L 2450 531 
L 3481 531 
L 3481 0 
L 794 0 
L 794 531 
z
" transform="scale(0.015625)"/>
       </defs>
       <use xlink:href="#DejaVuSans-31"/>
      </g>
     </g>
    </g>
    <g id="xtick_2">
     <g id="line2d_2">
      <g>
       <use xlink:href="#meafa106004" x="145.750388" y="511.818536" style="stroke: #000000; stroke-width: 0.8"/>
      </g>
     </g>
     <g id="text_2">
      <!-- 51 -->
      <g transform="translate(142.183476 538.937712) rotate(-45) scale(0.14 -0.14)">
       <defs>
        <path id="DejaVuSans-35" d="M 691 4666 
L 3169 4666 
L 3169 4134 
L 1269 4134 
L 1269 2991 
Q 1406 3038 1543 3061 
Q 1681 3084 1819 3084 
Q 2600 3084 3056 2656 
Q 3513 2228 3513 1497 
Q 3513 744 3044 326 
Q 2575 -91 1722 -91 
Q 1428 -91 1123 -41 
Q 819 9 494 109 
L 494 744 
Q 775 591 1075 516 
Q 1375 441 1709 441 
Q 2250 441 2565 725 
Q 2881 1009 2881 1497 
Q 2881 1984 2565 2268 
Q 2250 2553 1709 2553 
Q 1456 2553 1204 2497 
Q 953 2441 691 2322 
L 691 4666 
z
" transform="scale(0.015625)"/>
       </defs>
       <use xlink:href="#DejaVuSans-35"/>
       <use xlink:href="#DejaVuSans-31" x="63.623047"/>
      </g>
     </g>
    </g>
    <g id="xtick_3">
     <g id="line2d_3">
      <g>
       <use xlink:href="#meafa106004" x="198.624051" y="511.818536" style="stroke: #000000; stroke-width: 0.8"/>
      </g>
     </g>
     <g id="text_3">
      <!-- 101 -->
      <g transform="translate(191.907862 545.236266) rotate(-45) scale(0.14 -0.14)">
       <defs>
        <path id="DejaVuSans-30" d="M 2034 4250 
Q 1547 4250 1301 3770 
Q 1056 3291 1056 2328 
Q 1056 1369 1301 889 
Q 1547 409 2034 409 
Q 2525 409 2770 889 
Q 3016 1369 3016 2328 
Q 3016 3291 2770 3770 
Q 2525 4250 2034 4250 
z
M 2034 4750 
Q 2819 4750 3233 4129 
Q 3647 3509 3647 2328 
Q 3647 1150 3233 529 
Q 2819 -91 2034 -91 
Q 1250 -91 836 529 
Q 422 1150 422 2328 
Q 422 3509 836 4129 
Q 1250 4750 2034 4750 
z
" transform="scale(0.015625)"/>
       </defs>
       <use xlink:href="#DejaVuSans-31"/>
       <use xlink:href="#DejaVuSans-30" x="63.623047"/>
       <use xlink:href="#DejaVuSans-31" x="127.246094"/>
      </g>
     </g>
    </g>
    <g id="xtick_4">
     <g id="line2d_4">
      <g>
       <use xlink:href="#meafa106004" x="251.497714" y="511.818536" style="stroke: #000000; stroke-width: 0.8"/>
      </g>
     </g>
     <g id="text_4">
      <!-- 151 -->
      <g transform="translate(244.781525 545.236266) rotate(-45) scale(0.14 -0.14)">
       <use xlink:href="#DejaVuSans-31"/>
       <use xlink:href="#DejaVuSans-35" x="63.623047"/>
       <use xlink:href="#DejaVuSans-31" x="127.246094"/>
      </g>
     </g>
    </g>
    <g id="xtick_5">
     <g id="line2d_5">
      <g>
       <use xlink:href="#meafa106004" x="304.371377" y="511.818536" style="stroke: #000000; stroke-width: 0.8"/>
      </g>
     </g>
     <g id="text_5">
      <!-- 201 -->
      <g transform="translate(297.655188 545.236266) rotate(-45) scale(0.14 -0.14)">
       <defs>
        <path id="DejaVuSans-32" d="M 1228 531 
L 3431 531 
L 3431 0 
L 469 0 
L 469 531 
Q 828 903 1448 1529 
Q 2069 2156 2228 2338 
Q 2531 2678 2651 2914 
Q 2772 3150 2772 3378 
Q 2772 3750 2511 3984 
Q 2250 4219 1831 4219 
Q 1534 4219 1204 4116 
Q 875 4013 500 3803 
L 500 4441 
Q 881 4594 1212 4672 
Q 1544 4750 1819 4750 
Q 2544 4750 2975 4387 
Q 3406 4025 3406 3419 
Q 3406 3131 3298 2873 
Q 3191 2616 2906 2266 
Q 2828 2175 2409 1742 
Q 1991 1309 1228 531 
z
" transform="scale(0.015625)"/>
       </defs>
       <use xlink:href="#DejaVuSans-32"/>
       <use xlink:href="#DejaVuSans-30" x="63.623047"/>
       <use xlink:href="#DejaVuSans-31" x="127.246094"/>
      </g>
     </g>
    </g>
    <g id="xtick_6">
     <g id="line2d_6">
      <g>
       <use xlink:href="#meafa106004" x="357.24504" y="511.818536" style="stroke: #000000; stroke-width: 0.8"/>
      </g>
     </g>
     <g id="text_6">
      <!-- 251 -->
      <g transform="translate(350.528852 545.236266) rotate(-45) scale(0.14 -0.14)">
       <use xlink:href="#DejaVuSans-32"/>
       <use xlink:href="#DejaVuSans-35" x="63.623047"/>
       <use xlink:href="#DejaVuSans-31" x="127.246094"/>
      </g>
     </g>
    </g>
    <g id="xtick_7">
     <g id="line2d_7">
      <g>
       <use xlink:href="#meafa106004" x="410.118703" y="511.818536" style="stroke: #000000; stroke-width: 0.8"/>
      </g>
     </g>
     <g id="text_7">
      <!-- 301 -->
      <g transform="translate(403.402515 545.236266) rotate(-45) scale(0.14 -0.14)">
       <defs>
        <path id="DejaVuSans-33" d="M 2597 2516 
Q 3050 2419 3304 2112 
Q 3559 1806 3559 1356 
Q 3559 666 3084 287 
Q 2609 -91 1734 -91 
Q 1441 -91 1130 -33 
Q 819 25 488 141 
L 488 750 
Q 750 597 1062 519 
Q 1375 441 1716 441 
Q 2309 441 2620 675 
Q 2931 909 2931 1356 
Q 2931 1769 2642 2001 
Q 2353 2234 1838 2234 
L 1294 2234 
L 1294 2753 
L 1863 2753 
Q 2328 2753 2575 2939 
Q 2822 3125 2822 3475 
Q 2822 3834 2567 4026 
Q 2313 4219 1838 4219 
Q 1578 4219 1281 4162 
Q 984 4106 628 3988 
L 628 4550 
Q 988 4650 1302 4700 
Q 1616 4750 1894 4750 
Q 2613 4750 3031 4423 
Q 3450 4097 3450 3541 
Q 3450 3153 3228 2886 
Q 3006 2619 2597 2516 
z
" transform="scale(0.015625)"/>
       </defs>
       <use xlink:href="#DejaVuSans-33"/>
       <use xlink:href="#DejaVuSans-30" x="63.623047"/>
       <use xlink:href="#DejaVuSans-31" x="127.246094"/>
      </g>
     </g>
    </g>
    <g id="xtick_8">
     <g id="line2d_8">
      <g>
       <use xlink:href="#meafa106004" x="462.992366" y="511.818536" style="stroke: #000000; stroke-width: 0.8"/>
      </g>
     </g>
     <g id="text_8">
      <!-- 351 -->
      <g transform="translate(456.276178 545.236266) rotate(-45) scale(0.14 -0.14)">
       <use xlink:href="#DejaVuSans-33"/>
       <use xlink:href="#DejaVuSans-35" x="63.623047"/>
       <use xlink:href="#DejaVuSans-31" x="127.246094"/>
      </g>
     </g>
    </g>
    <g id="xtick_9">
     <g id="line2d_9">
      <g>
       <use xlink:href="#meafa106004" x="515.866029" y="511.818536" style="stroke: #000000; stroke-width: 0.8"/>
      </g>
     </g>
     <g id="text_9">
      <!-- 401 -->
      <g transform="translate(509.149841 545.236266) rotate(-45) scale(0.14 -0.14)">
       <defs>
        <path id="DejaVuSans-34" d="M 2419 4116 
L 825 1625 
L 2419 1625 
L 2419 4116 
z
M 2253 4666 
L 3047 4666 
L 3047 1625 
L 3713 1625 
L 3713 1100 
L 3047 1100 
L 3047 0 
L 2419 0 
L 2419 1100 
L 313 1100 
L 313 1709 
L 2253 4666 
z
" transform="scale(0.015625)"/>
       </defs>
       <use xlink:href="#DejaVuSans-34"/>
       <use xlink:href="#DejaVuSans-30" x="63.623047"/>
       <use xlink:href="#DejaVuSans-31" x="127.246094"/>
      </g>
     </g>
    </g>
    <g id="xtick_10">
     <g id="line2d_10">
      <g>
       <use xlink:href="#meafa106004" x="568.739693" y="511.818536" style="stroke: #000000; stroke-width: 0.8"/>
      </g>
     </g>
     <g id="text_10">
      <!-- 451 -->
      <g transform="translate(562.023504 545.236266) rotate(-45) scale(0.14 -0.14)">
       <use xlink:href="#DejaVuSans-34"/>
       <use xlink:href="#DejaVuSans-35" x="63.623047"/>
       <use xlink:href="#DejaVuSans-31" x="127.246094"/>
      </g>
     </g>
    </g>
    <g id="xtick_11">
     <g id="line2d_11">
      <g>
       <use xlink:href="#meafa106004" x="621.613356" y="511.818536" style="stroke: #000000; stroke-width: 0.8"/>
      </g>
     </g>
     <g id="text_11">
      <!-- 501 -->
      <g transform="translate(614.897167 545.236266) rotate(-45) scale(0.14 -0.14)">
       <use xlink:href="#DejaVuSans-35"/>
       <use xlink:href="#DejaVuSans-30" x="63.623047"/>
       <use xlink:href="#DejaVuSans-31" x="127.246094"/>
      </g>
     </g>
    </g>
    <g id="xtick_12">
     <g id="line2d_12">
      <g>
       <use xlink:href="#meafa106004" x="674.487019" y="511.818536" style="stroke: #000000; stroke-width: 0.8"/>
      </g>
     </g>
     <g id="text_12">
      <!-- 551 -->
      <g transform="translate(667.77083 545.236266) rotate(-45) scale(0.14 -0.14)">
       <use xlink:href="#DejaVuSans-35"/>
       <use xlink:href="#DejaVuSans-35" x="63.623047"/>
       <use xlink:href="#DejaVuSans-31" x="127.246094"/>
      </g>
     </g>
    </g>
    <g id="xtick_13">
     <g id="line2d_13">
      <g>
       <use xlink:href="#meafa106004" x="727.360682" y="511.818536" style="stroke: #000000; stroke-width: 0.8"/>
      </g>
     </g>
     <g id="text_13">
      <!-- 601 -->
      <g transform="translate(720.644493 545.236266) rotate(-45) scale(0.14 -0.14)">
       <defs>
        <path id="DejaVuSans-36" d="M 2113 2584 
Q 1688 2584 1439 2293 
Q 1191 2003 1191 1497 
Q 1191 994 1439 701 
Q 1688 409 2113 409 
Q 2538 409 2786 701 
Q 3034 994 3034 1497 
Q 3034 2003 2786 2293 
Q 2538 2584 2113 2584 
z
M 3366 4563 
L 3366 3988 
Q 3128 4100 2886 4159 
Q 2644 4219 2406 4219 
Q 1781 4219 1451 3797 
Q 1122 3375 1075 2522 
Q 1259 2794 1537 2939 
Q 1816 3084 2150 3084 
Q 2853 3084 3261 2657 
Q 3669 2231 3669 1497 
Q 3669 778 3244 343 
Q 2819 -91 2113 -91 
Q 1303 -91 875 529 
Q 447 1150 447 2328 
Q 447 3434 972 4092 
Q 1497 4750 2381 4750 
Q 2619 4750 2861 4703 
Q 3103 4656 3366 4563 
z
" transform="scale(0.015625)"/>
       </defs>
       <use xlink:href="#DejaVuSans-36"/>
       <use xlink:href="#DejaVuSans-30" x="63.623047"/>
       <use xlink:href="#DejaVuSans-31" x="127.246094"/>
      </g>
     </g>
    </g>
    <g id="xtick_14">
     <g id="line2d_14">
      <g>
       <use xlink:href="#meafa106004" x="780.234345" y="511.818536" style="stroke: #000000; stroke-width: 0.8"/>
      </g>
     </g>
     <g id="text_14">
      <!-- 651 -->
      <g transform="translate(773.518156 545.236266) rotate(-45) scale(0.14 -0.14)">
       <use xlink:href="#DejaVuSans-36"/>
       <use xlink:href="#DejaVuSans-35" x="63.623047"/>
       <use xlink:href="#DejaVuSans-31" x="127.246094"/>
      </g>
     </g>
    </g>
    <g id="text_15">
     <!-- Cuts -->
     <g transform="translate(441.99 561.932864) scale(0.14 -0.14)">
      <defs>
       <path id="DejaVuSans-43" d="M 4122 4306 
L 4122 3641 
Q 3803 3938 3442 4084 
Q 3081 4231 2675 4231 
Q 1875 4231 1450 3742 
Q 1025 3253 1025 2328 
Q 1025 1406 1450 917 
Q 1875 428 2675 428 
Q 3081 428 3442 575 
Q 3803 722 4122 1019 
L 4122 359 
Q 3791 134 3420 21 
Q 3050 -91 2638 -91 
Q 1578 -91 968 557 
Q 359 1206 359 2328 
Q 359 3453 968 4101 
Q 1578 4750 2638 4750 
Q 3056 4750 3426 4639 
Q 3797 4528 4122 4306 
z
" transform="scale(0.015625)"/>
       <path id="DejaVuSans-75" d="M 544 1381 
L 544 3500 
L 1119 3500 
L 1119 1403 
Q 1119 906 1312 657 
Q 1506 409 1894 409 
Q 2359 409 2629 706 
Q 2900 1003 2900 1516 
L 2900 3500 
L 3475 3500 
L 3475 0 
L 2900 0 
L 2900 538 
Q 2691 219 2414 64 
Q 2138 -91 1772 -91 
Q 1169 -91 856 284 
Q 544 659 544 1381 
z
M 1991 3584 
L 1991 3584 
z
" transform="scale(0.015625)"/>
       <path id="DejaVuSans-74" d="M 1172 4494 
L 1172 3500 
L 2356 3500 
L 2356 3053 
L 1172 3053 
L 1172 1153 
Q 1172 725 1289 603 
Q 1406 481 1766 481 
L 2356 481 
L 2356 0 
L 1766 0 
Q 1100 0 847 248 
Q 594 497 594 1153 
L 594 3053 
L 172 3053 
L 172 3500 
L 594 3500 
L 594 4494 
L 1172 4494 
z
" transform="scale(0.015625)"/>
       <path id="DejaVuSans-73" d="M 2834 3397 
L 2834 2853 
Q 2591 2978 2328 3040 
Q 2066 3103 1784 3103 
Q 1356 3103 1142 2972 
Q 928 2841 928 2578 
Q 928 2378 1081 2264 
Q 1234 2150 1697 2047 
L 1894 2003 
Q 2506 1872 2764 1633 
Q 3022 1394 3022 966 
Q 3022 478 2636 193 
Q 2250 -91 1575 -91 
Q 1294 -91 989 -36 
Q 684 19 347 128 
L 347 722 
Q 666 556 975 473 
Q 1284 391 1588 391 
Q 1994 391 2212 530 
Q 2431 669 2431 922 
Q 2431 1156 2273 1281 
Q 2116 1406 1581 1522 
L 1381 1569 
Q 847 1681 609 1914 
Q 372 2147 372 2553 
Q 372 3047 722 3315 
Q 1072 3584 1716 3584 
Q 2034 3584 2315 3537 
Q 2597 3491 2834 3397 
z
" transform="scale(0.015625)"/>
      </defs>
      <use xlink:href="#DejaVuSans-43"/>
      <use xlink:href="#DejaVuSans-75" x="69.824219"/>
      <use xlink:href="#DejaVuSans-74" x="133.203125"/>
      <use xlink:href="#DejaVuSans-73" x="172.412109"/>
     </g>
    </g>
   </g>
   <g id="matplotlib.axis_2">
    <g id="ytick_1">
     <g id="line2d_15">
      <defs>
       <path id="mf5968ea294" d="M 0 0 
L -3.5 0 
" style="stroke: #000000; stroke-width: 0.8"/>
      </defs>
      <g>
       <use xlink:href="#mf5968ea294" x="62.21" y="511.818536" style="stroke: #000000; stroke-width: 0.8"/>
      </g>
     </g>
     <g id="text_16">
      <!-- 0 -->
      <g transform="translate(46.3025 517.137442) scale(0.14 -0.14)">
       <use xlink:href="#DejaVuSans-30"/>
      </g>
     </g>
    </g>
    <g id="ytick_2">
     <g id="line2d_16">
      <g>
       <use xlink:href="#mf5968ea294" x="62.21" y="422.28177" style="stroke: #000000; stroke-width: 0.8"/>
      </g>
     </g>
     <g id="text_17">
      <!-- 50 -->
      <g transform="translate(37.395 427.600676) scale(0.14 -0.14)">
       <use xlink:href="#DejaVuSans-35"/>
       <use xlink:href="#DejaVuSans-30" x="63.623047"/>
      </g>
     </g>
    </g>
    <g id="ytick_3">
     <g id="line2d_17">
      <g>
       <use xlink:href="#mf5968ea294" x="62.21" y="332.745004" style="stroke: #000000; stroke-width: 0.8"/>
      </g>
     </g>
     <g id="text_18">
      <!-- 100 -->
      <g transform="translate(28.4875 338.06391) scale(0.14 -0.14)">
       <use xlink:href="#DejaVuSans-31"/>
       <use xlink:href="#DejaVuSans-30" x="63.623047"/>
       <use xlink:href="#DejaVuSans-30" x="127.246094"/>
      </g>
     </g>
    </g>
    <g id="ytick_4">
     <g id="line2d_18">
      <g>
       <use xlink:href="#mf5968ea294" x="62.21" y="243.208238" style="stroke: #000000; stroke-width: 0.8"/>
      </g>
     </g>
     <g id="text_19">
      <!-- 150 -->
      <g transform="translate(28.4875 248.527144) scale(0.14 -0.14)">
       <use xlink:href="#DejaVuSans-31"/>
       <use xlink:href="#DejaVuSans-35" x="63.623047"/>
       <use xlink:href="#DejaVuSans-30" x="127.246094"/>
      </g>
     </g>
    </g>
    <g id="ytick_5">
     <g id="line2d_19">
      <g>
       <use xlink:href="#mf5968ea294" x="62.21" y="153.671472" style="stroke: #000000; stroke-width: 0.8"/>
      </g>
     </g>
     <g id="text_20">
      <!-- 200 -->
      <g transform="translate(28.4875 158.990378) scale(0.14 -0.14)">
       <use xlink:href="#DejaVuSans-32"/>
       <use xlink:href="#DejaVuSans-30" x="63.623047"/>
       <use xlink:href="#DejaVuSans-30" x="127.246094"/>
      </g>
     </g>
    </g>
    <g id="ytick_6">
     <g id="line2d_20">
      <g>
       <use xlink:href="#mf5968ea294" x="62.21" y="64.134706" style="stroke: #000000; stroke-width: 0.8"/>
      </g>
     </g>
     <g id="text_21">
      <!-- 250 -->
      <g transform="translate(28.4875 69.453613) scale(0.14 -0.14)">
       <use xlink:href="#DejaVuSans-32"/>
       <use xlink:href="#DejaVuSans-35" x="63.623047"/>
       <use xlink:href="#DejaVuSans-30" x="127.246094"/>
      </g>
     </g>
    </g>
    <g id="text_22">
     <!-- VB (μm) -->
     <g transform="translate(21.575937 298.619424) rotate(-90) scale(0.14 -0.14)">
      <defs>
       <path id="DejaVuSans-56" d="M 1831 0 
L 50 4666 
L 709 4666 
L 2188 738 
L 3669 4666 
L 4325 4666 
L 2547 0 
L 1831 0 
z
" transform="scale(0.015625)"/>
       <path id="DejaVuSans-42" d="M 1259 2228 
L 1259 519 
L 2272 519 
Q 2781 519 3026 730 
Q 3272 941 3272 1375 
Q 3272 1813 3026 2020 
Q 2781 2228 2272 2228 
L 1259 2228 
z
M 1259 4147 
L 1259 2741 
L 2194 2741 
Q 2656 2741 2882 2914 
Q 3109 3088 3109 3444 
Q 3109 3797 2882 3972 
Q 2656 4147 2194 4147 
L 1259 4147 
z
M 628 4666 
L 2241 4666 
Q 2963 4666 3353 4366 
Q 3744 4066 3744 3513 
Q 3744 3084 3544 2831 
Q 3344 2578 2956 2516 
Q 3422 2416 3680 2098 
Q 3938 1781 3938 1306 
Q 3938 681 3513 340 
Q 3088 0 2303 0 
L 628 0 
L 628 4666 
z
" transform="scale(0.015625)"/>
       <path id="DejaVuSans-20" transform="scale(0.015625)"/>
       <path id="DejaVuSans-28" d="M 1984 4856 
Q 1566 4138 1362 3434 
Q 1159 2731 1159 2009 
Q 1159 1288 1364 580 
Q 1569 -128 1984 -844 
L 1484 -844 
Q 1016 -109 783 600 
Q 550 1309 550 2009 
Q 550 2706 781 3412 
Q 1013 4119 1484 4856 
L 1984 4856 
z
" transform="scale(0.015625)"/>
       <path id="DejaVuSans-3bc" d="M 544 -1331 
L 544 3500 
L 1119 3500 
L 1119 1325 
Q 1119 872 1334 640 
Q 1550 409 1972 409 
Q 2434 409 2667 671 
Q 2900 934 2900 1459 
L 2900 3500 
L 3475 3500 
L 3475 806 
Q 3475 619 3529 530 
Q 3584 441 3700 441 
Q 3728 441 3778 458 
Q 3828 475 3916 513 
L 3916 50 
Q 3788 -22 3673 -56 
Q 3559 -91 3450 -91 
Q 3234 -91 3106 31 
Q 2978 153 2931 403 
Q 2775 156 2548 32 
Q 2322 -91 2016 -91 
Q 1697 -91 1473 31 
Q 1250 153 1119 397 
L 1119 -1331 
L 544 -1331 
z
" transform="scale(0.015625)"/>
       <path id="DejaVuSans-6d" d="M 3328 2828 
Q 3544 3216 3844 3400 
Q 4144 3584 4550 3584 
Q 5097 3584 5394 3201 
Q 5691 2819 5691 2113 
L 5691 0 
L 5113 0 
L 5113 2094 
Q 5113 2597 4934 2840 
Q 4756 3084 4391 3084 
Q 3944 3084 3684 2787 
Q 3425 2491 3425 1978 
L 3425 0 
L 2847 0 
L 2847 2094 
Q 2847 2600 2669 2842 
Q 2491 3084 2119 3084 
Q 1678 3084 1418 2786 
Q 1159 2488 1159 1978 
L 1159 0 
L 581 0 
L 581 3500 
L 1159 3500 
L 1159 2956 
Q 1356 3278 1631 3431 
Q 1906 3584 2284 3584 
Q 2666 3584 2933 3390 
Q 3200 3197 3328 2828 
z
" transform="scale(0.015625)"/>
       <path id="DejaVuSans-29" d="M 513 4856 
L 1013 4856 
Q 1481 4119 1714 3412 
Q 1947 2706 1947 2009 
Q 1947 1309 1714 600 
Q 1481 -109 1013 -844 
L 513 -844 
Q 928 -128 1133 580 
Q 1338 1288 1338 2009 
Q 1338 2731 1133 3434 
Q 928 4138 513 4856 
z
" transform="scale(0.015625)"/>
      </defs>
      <use xlink:href="#DejaVuSans-56"/>
      <use xlink:href="#DejaVuSans-42" x="68.408203"/>
      <use xlink:href="#DejaVuSans-20" x="137.011719"/>
      <use xlink:href="#DejaVuSans-28" x="168.798828"/>
      <use xlink:href="#DejaVuSans-3bc" x="207.8125"/>
      <use xlink:href="#DejaVuSans-6d" x="271.435547"/>
      <use xlink:href="#DejaVuSans-29" x="368.847656"/>
     </g>
    </g>
   </g>
   <g id="patch_3">
    <path d="M 62.21 511.818536 
L 62.21 28.32 
" style="fill: none; stroke: #000000; stroke-width: 0.8; stroke-linejoin: miter; stroke-linecap: square"/>
   </g>
   <g id="patch_4">
    <path d="M 853.2 511.818536 
L 853.2 28.32 
" style="fill: none; stroke: #000000; stroke-width: 0.8; stroke-linejoin: miter; stroke-linecap: square"/>
   </g>
   <g id="patch_5">
    <path d="M 62.21 511.818536 
L 853.2 511.818536 
" style="fill: none; stroke: #000000; stroke-width: 0.8; stroke-linejoin: miter; stroke-linecap: square"/>
   </g>
   <g id="patch_6">
    <path d="M 62.21 28.32 
L 853.2 28.32 
" style="fill: none; stroke: #000000; stroke-width: 0.8; stroke-linejoin: miter; stroke-linecap: square"/>
   </g>
   <g id="text_23">
    <!-- VB Curve_DBSCAN Clustering for Tooth 3 -->
    <g transform="translate(294.42 22.32) scale(0.16 -0.16)">
     <defs>
      <path id="DejaVuSans-72" d="M 2631 2963 
Q 2534 3019 2420 3045 
Q 2306 3072 2169 3072 
Q 1681 3072 1420 2755 
Q 1159 2438 1159 1844 
L 1159 0 
L 581 0 
L 581 3500 
L 1159 3500 
L 1159 2956 
Q 1341 3275 1631 3429 
Q 1922 3584 2338 3584 
Q 2397 3584 2469 3576 
Q 2541 3569 2628 3553 
L 2631 2963 
z
" transform="scale(0.015625)"/>
      <path id="DejaVuSans-76" d="M 191 3500 
L 800 3500 
L 1894 563 
L 2988 3500 
L 3597 3500 
L 2284 0 
L 1503 0 
L 191 3500 
z
" transform="scale(0.015625)"/>
      <path id="DejaVuSans-65" d="M 3597 1894 
L 3597 1613 
L 953 1613 
Q 991 1019 1311 708 
Q 1631 397 2203 397 
Q 2534 397 2845 478 
Q 3156 559 3463 722 
L 3463 178 
Q 3153 47 2828 -22 
Q 2503 -91 2169 -91 
Q 1331 -91 842 396 
Q 353 884 353 1716 
Q 353 2575 817 3079 
Q 1281 3584 2069 3584 
Q 2775 3584 3186 3129 
Q 3597 2675 3597 1894 
z
M 3022 2063 
Q 3016 2534 2758 2815 
Q 2500 3097 2075 3097 
Q 1594 3097 1305 2825 
Q 1016 2553 972 2059 
L 3022 2063 
z
" transform="scale(0.015625)"/>
      <path id="DejaVuSans-5f" d="M 3263 -1063 
L 3263 -1509 
L -63 -1509 
L -63 -1063 
L 3263 -1063 
z
" transform="scale(0.015625)"/>
      <path id="DejaVuSans-44" d="M 1259 4147 
L 1259 519 
L 2022 519 
Q 2988 519 3436 956 
Q 3884 1394 3884 2338 
Q 3884 3275 3436 3711 
Q 2988 4147 2022 4147 
L 1259 4147 
z
M 628 4666 
L 1925 4666 
Q 3281 4666 3915 4102 
Q 4550 3538 4550 2338 
Q 4550 1131 3912 565 
Q 3275 0 1925 0 
L 628 0 
L 628 4666 
z
" transform="scale(0.015625)"/>
      <path id="DejaVuSans-53" d="M 3425 4513 
L 3425 3897 
Q 3066 4069 2747 4153 
Q 2428 4238 2131 4238 
Q 1616 4238 1336 4038 
Q 1056 3838 1056 3469 
Q 1056 3159 1242 3001 
Q 1428 2844 1947 2747 
L 2328 2669 
Q 3034 2534 3370 2195 
Q 3706 1856 3706 1288 
Q 3706 609 3251 259 
Q 2797 -91 1919 -91 
Q 1588 -91 1214 -16 
Q 841 59 441 206 
L 441 856 
Q 825 641 1194 531 
Q 1563 422 1919 422 
Q 2459 422 2753 634 
Q 3047 847 3047 1241 
Q 3047 1584 2836 1778 
Q 2625 1972 2144 2069 
L 1759 2144 
Q 1053 2284 737 2584 
Q 422 2884 422 3419 
Q 422 4038 858 4394 
Q 1294 4750 2059 4750 
Q 2388 4750 2728 4690 
Q 3069 4631 3425 4513 
z
" transform="scale(0.015625)"/>
      <path id="DejaVuSans-41" d="M 2188 4044 
L 1331 1722 
L 3047 1722 
L 2188 4044 
z
M 1831 4666 
L 2547 4666 
L 4325 0 
L 3669 0 
L 3244 1197 
L 1141 1197 
L 716 0 
L 50 0 
L 1831 4666 
z
" transform="scale(0.015625)"/>
      <path id="DejaVuSans-4e" d="M 628 4666 
L 1478 4666 
L 3547 763 
L 3547 4666 
L 4159 4666 
L 4159 0 
L 3309 0 
L 1241 3903 
L 1241 0 
L 628 0 
L 628 4666 
z
" transform="scale(0.015625)"/>
      <path id="DejaVuSans-6c" d="M 603 4863 
L 1178 4863 
L 1178 0 
L 603 0 
L 603 4863 
z
" transform="scale(0.015625)"/>
      <path id="DejaVuSans-69" d="M 603 3500 
L 1178 3500 
L 1178 0 
L 603 0 
L 603 3500 
z
M 603 4863 
L 1178 4863 
L 1178 4134 
L 603 4134 
L 603 4863 
z
" transform="scale(0.015625)"/>
      <path id="DejaVuSans-6e" d="M 3513 2113 
L 3513 0 
L 2938 0 
L 2938 2094 
Q 2938 2591 2744 2837 
Q 2550 3084 2163 3084 
Q 1697 3084 1428 2787 
Q 1159 2491 1159 1978 
L 1159 0 
L 581 0 
L 581 3500 
L 1159 3500 
L 1159 2956 
Q 1366 3272 1645 3428 
Q 1925 3584 2291 3584 
Q 2894 3584 3203 3211 
Q 3513 2838 3513 2113 
z
" transform="scale(0.015625)"/>
      <path id="DejaVuSans-67" d="M 2906 1791 
Q 2906 2416 2648 2759 
Q 2391 3103 1925 3103 
Q 1463 3103 1205 2759 
Q 947 2416 947 1791 
Q 947 1169 1205 825 
Q 1463 481 1925 481 
Q 2391 481 2648 825 
Q 2906 1169 2906 1791 
z
M 3481 434 
Q 3481 -459 3084 -895 
Q 2688 -1331 1869 -1331 
Q 1566 -1331 1297 -1286 
Q 1028 -1241 775 -1147 
L 775 -588 
Q 1028 -725 1275 -790 
Q 1522 -856 1778 -856 
Q 2344 -856 2625 -561 
Q 2906 -266 2906 331 
L 2906 616 
Q 2728 306 2450 153 
Q 2172 0 1784 0 
Q 1141 0 747 490 
Q 353 981 353 1791 
Q 353 2603 747 3093 
Q 1141 3584 1784 3584 
Q 2172 3584 2450 3431 
Q 2728 3278 2906 2969 
L 2906 3500 
L 3481 3500 
L 3481 434 
z
" transform="scale(0.015625)"/>
      <path id="DejaVuSans-66" d="M 2375 4863 
L 2375 4384 
L 1825 4384 
Q 1516 4384 1395 4259 
Q 1275 4134 1275 3809 
L 1275 3500 
L 2222 3500 
L 2222 3053 
L 1275 3053 
L 1275 0 
L 697 0 
L 697 3053 
L 147 3053 
L 147 3500 
L 697 3500 
L 697 3744 
Q 697 4328 969 4595 
Q 1241 4863 1831 4863 
L 2375 4863 
z
" transform="scale(0.015625)"/>
      <path id="DejaVuSans-6f" d="M 1959 3097 
Q 1497 3097 1228 2736 
Q 959 2375 959 1747 
Q 959 1119 1226 758 
Q 1494 397 1959 397 
Q 2419 397 2687 759 
Q 2956 1122 2956 1747 
Q 2956 2369 2687 2733 
Q 2419 3097 1959 3097 
z
M 1959 3584 
Q 2709 3584 3137 3096 
Q 3566 2609 3566 1747 
Q 3566 888 3137 398 
Q 2709 -91 1959 -91 
Q 1206 -91 779 398 
Q 353 888 353 1747 
Q 353 2609 779 3096 
Q 1206 3584 1959 3584 
z
" transform="scale(0.015625)"/>
      <path id="DejaVuSans-54" d="M -19 4666 
L 3928 4666 
L 3928 4134 
L 2272 4134 
L 2272 0 
L 1638 0 
L 1638 4134 
L -19 4134 
L -19 4666 
z
" transform="scale(0.015625)"/>
      <path id="DejaVuSans-68" d="M 3513 2113 
L 3513 0 
L 2938 0 
L 2938 2094 
Q 2938 2591 2744 2837 
Q 2550 3084 2163 3084 
Q 1697 3084 1428 2787 
Q 1159 2491 1159 1978 
L 1159 0 
L 581 0 
L 581 4863 
L 1159 4863 
L 1159 2956 
Q 1366 3272 1645 3428 
Q 1925 3584 2291 3584 
Q 2894 3584 3203 3211 
Q 3513 2838 3513 2113 
z
" transform="scale(0.015625)"/>
     </defs>
     <use xlink:href="#DejaVuSans-56"/>
     <use xlink:href="#DejaVuSans-42" x="68.408203"/>
     <use xlink:href="#DejaVuSans-20" x="137.011719"/>
     <use xlink:href="#DejaVuSans-43" x="168.798828"/>
     <use xlink:href="#DejaVuSans-75" x="238.623047"/>
     <use xlink:href="#DejaVuSans-72" x="302.001953"/>
     <use xlink:href="#DejaVuSans-76" x="343.115234"/>
     <use xlink:href="#DejaVuSans-65" x="402.294922"/>
     <use xlink:href="#DejaVuSans-5f" x="463.818359"/>
     <use xlink:href="#DejaVuSans-44" x="513.818359"/>
     <use xlink:href="#DejaVuSans-42" x="590.820312"/>
     <use xlink:href="#DejaVuSans-53" x="657.673828"/>
     <use xlink:href="#DejaVuSans-43" x="721.150391"/>
     <use xlink:href="#DejaVuSans-41" x="790.974609"/>
     <use xlink:href="#DejaVuSans-4e" x="859.382812"/>
     <use xlink:href="#DejaVuSans-20" x="934.1875"/>
     <use xlink:href="#DejaVuSans-43" x="965.974609"/>
     <use xlink:href="#DejaVuSans-6c" x="1035.798828"/>
     <use xlink:href="#DejaVuSans-75" x="1063.582031"/>
     <use xlink:href="#DejaVuSans-73" x="1126.960938"/>
     <use xlink:href="#DejaVuSans-74" x="1179.060547"/>
     <use xlink:href="#DejaVuSans-65" x="1218.269531"/>
     <use xlink:href="#DejaVuSans-72" x="1279.792969"/>
     <use xlink:href="#DejaVuSans-69" x="1320.90625"/>
     <use xlink:href="#DejaVuSans-6e" x="1348.689453"/>
     <use xlink:href="#DejaVuSans-67" x="1412.068359"/>
     <use xlink:href="#DejaVuSans-20" x="1475.544922"/>
     <use xlink:href="#DejaVuSans-66" x="1507.332031"/>
     <use xlink:href="#DejaVuSans-6f" x="1542.537109"/>
     <use xlink:href="#DejaVuSans-72" x="1603.71875"/>
     <use xlink:href="#DejaVuSans-20" x="1644.832031"/>
     <use xlink:href="#DejaVuSans-54" x="1676.619141"/>
     <use xlink:href="#DejaVuSans-6f" x="1720.703125"/>
     <use xlink:href="#DejaVuSans-6f" x="1781.884766"/>
     <use xlink:href="#DejaVuSans-74" x="1843.066406"/>
     <use xlink:href="#DejaVuSans-68" x="1882.275391"/>
     <use xlink:href="#DejaVuSans-20" x="1945.654297"/>
     <use xlink:href="#DejaVuSans-33" x="1977.441406"/>
    </g>
   </g>
   <g id="legend_1">
    <g id="patch_7">
     <path d="M 72.01 80.61875 
L 242.044375 80.61875 
Q 244.844375 80.61875 244.844375 77.81875 
L 244.844375 38.12 
Q 244.844375 35.32 242.044375 35.32 
L 72.01 35.32 
Q 69.21 35.32 69.21 38.12 
L 69.21 77.81875 
Q 69.21 80.61875 72.01 80.61875 
z
" style="fill: #ffffff; opacity: 0.8; stroke: #cccccc; stroke-linejoin: miter"/>
    </g>
    <g id="PathCollection_3">
     <g>
      <use xlink:href="#m7ca0e75a6c" x="88.81" y="47.882812" style="fill: #008000; stroke: #000000"/>
     </g>
    </g>
    <g id="text_24">
     <!-- 3st Tooth Clusters -->
     <g transform="translate(114.01 51.557812) scale(0.14 -0.14)">
      <use xlink:href="#DejaVuSans-33"/>
      <use xlink:href="#DejaVuSans-73" x="63.623047"/>
      <use xlink:href="#DejaVuSans-74" x="115.722656"/>
      <use xlink:href="#DejaVuSans-20" x="154.931641"/>
      <use xlink:href="#DejaVuSans-54" x="186.71875"/>
      <use xlink:href="#DejaVuSans-6f" x="230.802734"/>
      <use xlink:href="#DejaVuSans-6f" x="291.984375"/>
      <use xlink:href="#DejaVuSans-74" x="353.166016"/>
      <use xlink:href="#DejaVuSans-68" x="392.375"/>
      <use xlink:href="#DejaVuSans-20" x="455.753906"/>
      <use xlink:href="#DejaVuSans-43" x="487.541016"/>
      <use xlink:href="#DejaVuSans-6c" x="557.365234"/>
      <use xlink:href="#DejaVuSans-75" x="585.148438"/>
      <use xlink:href="#DejaVuSans-73" x="648.527344"/>
      <use xlink:href="#DejaVuSans-74" x="700.626953"/>
      <use xlink:href="#DejaVuSans-65" x="739.835938"/>
      <use xlink:href="#DejaVuSans-72" x="801.359375"/>
      <use xlink:href="#DejaVuSans-73" x="842.472656"/>
     </g>
    </g>
    <g id="PathCollection_4">
     <g>
      <use xlink:href="#maa52063442" x="88.81" y="68.432187" style="fill: #ff0000; stroke: #000000"/>
     </g>
    </g>
    <g id="text_25">
     <!-- 3st Tooth Outliers -->
     <g transform="translate(114.01 72.107187) scale(0.14 -0.14)">
      <defs>
       <path id="DejaVuSans-4f" d="M 2522 4238 
Q 1834 4238 1429 3725 
Q 1025 3213 1025 2328 
Q 1025 1447 1429 934 
Q 1834 422 2522 422 
Q 3209 422 3611 934 
Q 4013 1447 4013 2328 
Q 4013 3213 3611 3725 
Q 3209 4238 2522 4238 
z
M 2522 4750 
Q 3503 4750 4090 4092 
Q 4678 3434 4678 2328 
Q 4678 1225 4090 567 
Q 3503 -91 2522 -91 
Q 1538 -91 948 565 
Q 359 1222 359 2328 
Q 359 3434 948 4092 
Q 1538 4750 2522 4750 
z
" transform="scale(0.015625)"/>
      </defs>
      <use xlink:href="#DejaVuSans-33"/>
      <use xlink:href="#DejaVuSans-73" x="63.623047"/>
      <use xlink:href="#DejaVuSans-74" x="115.722656"/>
      <use xlink:href="#DejaVuSans-20" x="154.931641"/>
      <use xlink:href="#DejaVuSans-54" x="186.71875"/>
      <use xlink:href="#DejaVuSans-6f" x="230.802734"/>
      <use xlink:href="#DejaVuSans-6f" x="291.984375"/>
      <use xlink:href="#DejaVuSans-74" x="353.166016"/>
      <use xlink:href="#DejaVuSans-68" x="392.375"/>
      <use xlink:href="#DejaVuSans-20" x="455.753906"/>
      <use xlink:href="#DejaVuSans-4f" x="487.541016"/>
      <use xlink:href="#DejaVuSans-75" x="566.251953"/>
      <use xlink:href="#DejaVuSans-74" x="629.630859"/>
      <use xlink:href="#DejaVuSans-6c" x="668.839844"/>
      <use xlink:href="#DejaVuSans-69" x="696.623047"/>
      <use xlink:href="#DejaVuSans-65" x="724.40625"/>
      <use xlink:href="#DejaVuSans-72" x="785.929688"/>
      <use xlink:href="#DejaVuSans-73" x="827.042969"/>
     </g>
    </g>
   </g>
  </g>
 </g>
 <defs>
  <clipPath id="p58903a492c">
   <rect x="62.21" y="28.32" width="790.99" height="483.498536"/>
  </clipPath>
 </defs>
</svg>
