<?xml version="1.0" encoding="UTF-8" standalone="no"?>
<!-- Created with Inkscape (http://www.inkscape.org/) -->

<svg
   xmlns:dc="http://purl.org/dc/elements/1.1/"
   xmlns:cc="http://creativecommons.org/ns#"
   xmlns:rdf="http://www.w3.org/1999/02/22-rdf-syntax-ns#"
   xmlns:svg="http://www.w3.org/2000/svg"
   xmlns="http://www.w3.org/2000/svg"
   xmlns:sodipodi="http://sodipodi.sourceforge.net/DTD/sodipodi-0.dtd"
   xmlns:inkscape="http://www.inkscape.org/namespaces/inkscape"
   version="1.1"
   id="svg2"
   xml:space="preserve"
   width="920.94666"
   height="437.85333"
   viewBox="0 0 920.94666 437.85333"
   sodipodi:docname="WBK_rgb_D_transparenz.svg"
   inkscape:version="0.92.4 (5da689c313, 2019-01-14)"><metadata
     id="metadata8"><rdf:RDF><cc:Work
         rdf:about=""><dc:format>image/svg+xml</dc:format><dc:type
           rdf:resource="http://purl.org/dc/dcmitype/StillImage" /><dc:title></dc:title></cc:Work></rdf:RDF></metadata><defs
     id="defs6" /><sodipodi:namedview
     pagecolor="#ffffff"
     bordercolor="#666666"
     borderopacity="1"
     objecttolerance="10"
     gridtolerance="10"
     guidetolerance="10"
     inkscape:pageopacity="0"
     inkscape:pageshadow="2"
     inkscape:window-width="640"
     inkscape:window-height="480"
     id="namedview4"
     showgrid="false"
     inkscape:zoom="0.38004373"
     inkscape:cx="460.47333"
     inkscape:cy="218.92667"
     inkscape:window-x="0"
     inkscape:window-y="0"
     inkscape:window-maximized="0"
     inkscape:current-layer="g10" /><g
     id="g10"
     inkscape:groupmode="layer"
     inkscape:label="ink_ext_XXXXXX"
     transform="matrix(1.3333333,0,0,-1.3333333,0,437.85333)"><g
       id="g12"
       transform="scale(0.1)"><path
         d="m 2042.55,3242.76 317.64,-109.43 -109.35,-317.68 -317.64,109.44 109.35,317.67"
         style="fill:#35a18a;fill-opacity:1;fill-rule:evenodd;stroke:none"
         id="path14"
         inkscape:connector-curvature="0" /><path
         d="m 1481.11,2942.82 -5.2,335.97 335.94,5.08 5.21,-335.94 -335.95,-5.11"
         style="fill:#48a891;fill-opacity:1;fill-rule:nonzero;stroke:none"
         id="path16"
         inkscape:connector-curvature="0" /><path
         d="m 1029.27,2799.02 -120.497,313.66 313.647,120.4 120.5,-313.65 -313.65,-120.41"
         style="fill:#5cb09a;fill-opacity:1;fill-rule:nonzero;stroke:none"
         id="path18"
         inkscape:connector-curvature="0" /><path
         d="M 669.977,2514.57 449.441,2768.12 702.969,2988.55 923.5,2734.98 669.977,2514.57"
         style="fill:#70b9a3;fill-opacity:1;fill-rule:nonzero;stroke:none"
         id="path20"
         inkscape:connector-curvature="0" /><path
         d="m 426.301,2117.16 -293.965,162.87 162.805,293.85 294,-162.84 -162.84,-293.88"
         style="fill:#84c2ad;fill-opacity:1;fill-rule:nonzero;stroke:none"
         id="path22"
         inkscape:connector-curvature="0" /><path
         d="M 331.996,1660.68 0,1713.16 52.4805,2044.99 384.434,1992.51 331.996,1660.68"
         style="fill:#84c2ad;fill-opacity:1;fill-rule:nonzero;stroke:none"
         id="path24"
         inkscape:connector-curvature="0" /><path
         d="M 64.7266,1139.03 0.527344,1468.82 330.449,1533.02 394.648,1203.26 64.7266,1139.03"
         style="fill:#97cbb8;fill-opacity:1;fill-rule:nonzero;stroke:none"
         id="path26"
         inkscape:connector-curvature="0" /><path
         d="m 326.344,622.859 -173.141,288 288.106,173.171 173.14,-287.991 -288.105,-173.18"
         style="fill:#acd4c4;fill-opacity:1;fill-rule:nonzero;stroke:none"
         id="path28"
         inkscape:connector-curvature="0" /><path
         d="M 749.063,230.98 487.848,442.41 699.344,703.621 960.602,492.238 749.063,230.98"
         style="fill:#d5e9df;fill-opacity:1;fill-rule:nonzero;stroke:none"
         id="path30"
         inkscape:connector-curvature="0" /><path
         d="m 1519.8,950.871 h 562.13 l 266.26,1013.979 h 5.41 L 2590.24,950.871 h 562.17 l 427.6,1401.259 h -467.99 l -220.54,-1008.6 h -5.37 l -236.68,1008.6 h -580.96 l -242.05,-1008.6 h -5.38 L 1595.1,2352.13 H 1089.48 L 1519.8,950.871"
         style="fill:#35a18a;fill-opacity:1;fill-rule:evenodd;stroke:none"
         id="path32"
         inkscape:connector-curvature="0" /><path
         d="m 4763.34,1666.33 c 0,-223.25 -110.28,-376.54 -293.18,-376.54 -161.39,0 -295.88,153.29 -295.88,357.7 0,209.8 118.34,365.81 295.88,365.81 188.27,0 293.18,-161.36 293.18,-346.97 z M 3690.18,950.871 h 446.47 v 250.149 h 5.37 c 61.84,-156.01 258.17,-282.399 481.42,-282.399 416.9,0 640.11,344.239 640.11,758.449 0,338.88 -212.47,707.37 -599.75,707.37 -193.64,0 -357.67,-56.51 -481.43,-212.48 h -5.36 v 796.13 H 3690.18 V 950.871"
         style="fill:#35a18a;fill-opacity:1;fill-rule:evenodd;stroke:none"
         id="path34"
         inkscape:connector-curvature="0" /><path
         d="M 5443.9,950.871 H 5928 v 693.899 h 5.45 l 387.28,-693.899 h 586.34 l -527.19,758.459 486.88,642.8 h -529.91 l -403.4,-589 H 5928 V 2968.09 H 5443.9 V 950.871"
         style="fill:#35a18a;fill-opacity:1;fill-rule:evenodd;stroke:none"
         id="path36"
         inkscape:connector-curvature="0" /><path
         d="M 1272.37,0 956.168,114.879 1071.36,431.129 1387.57,316.25 1272.37,0"
         style="fill:#eaf4ef;fill-opacity:1;fill-rule:nonzero;stroke:none"
         id="path38"
         inkscape:connector-curvature="0" /></g></g></svg>